<svg width="18" height="19" viewBox="0 0 18 19" fill="none" xmlns="http://www.w3.org/2000/svg">
<path fill-rule="evenodd" clip-rule="evenodd" d="M3.75 10.25H12.645L9.9225 13.52C9.6574 13.8389 9.70106 14.3124 10.02 14.5775C10.3389 14.8426 10.8124 14.7989 11.0775 14.48L14.8275 9.98C14.8527 9.94421 14.8753 9.90661 14.895 9.8675C14.895 9.83 14.9325 9.8075 14.9475 9.77C14.9815 9.68401 14.9993 9.59247 15 9.5V9.5C14.9993 9.40753 14.9815 9.31599 14.9475 9.23C14.9475 9.1925 14.91 9.17 14.895 9.1325C14.8753 9.09339 14.8527 9.05579 14.8275 9.02L11.0775 4.52V4.52C10.9347 4.3486 10.7231 4.24964 10.5 4.25V4.25C10.3248 4.24966 10.1549 4.31069 10.02 4.4225L10.02 4.4225C9.70112 4.68687 9.65693 5.15968 9.9213 5.47856C9.9217 5.47904 9.9221 5.47952 9.9225 5.48L12.645 8.75H3.75C3.33579 8.75 3 9.08579 3 9.5C3 9.91422 3.33579 10.25 3.75 10.25L3.75 10.25Z" fill="#0096EB"/>
</svg>
